<svg xmlns="http://www.w3.org/2000/svg" width="76.2" height="62.264" viewBox="0 0 76.2 62.264">
    <defs>
        <style>
            .prefix__cls-1{fill:#606060}
        </style>
    </defs>
    <g id="prefix__arrow" transform="rotate(90 38.1 38.1)">
        <path id="prefix__Path_838" d="M206.94 89.6h-.583a3.182 3.182 0 0 0-3.157-2.82h-2.155a3.182 3.182 0 0 0-3.179 3.177v2.263a.2.2 0 0 1-.2.2h-2.282a.2.2 0 0 1-.2-.2v-2.261a.2.2 0 0 1 .2-.2h.209a1.488 1.488 0 0 0 0-2.977h-.209a3.183 3.183 0 0 0-3.158 2.82h-.583a1.488 1.488 0 0 0 0 2.977h.583a3.183 3.183 0 0 0 3.158 2.82h2.282a3.182 3.182 0 0 0 3.179-3.177v-2.263a.2.2 0 0 1 .2-.2h2.155a.2.2 0 0 1 .2.2v2.261a.2.2 0 0 1-.2.2 1.488 1.488 0 0 0 0 2.977 3.182 3.182 0 0 0 3.157-2.82h.583a1.488 1.488 0 0 0 0-2.977zm0 0" class="prefix__cls-1" transform="translate(-174.464 -32.113)"/>
        <path id="prefix__Path_839" d="M1.267 27.917l8.512 11.4v22.45H4.36A3.753 3.753 0 0 0 .611 65.51v6.943A3.753 3.753 0 0 0 4.36 76.2h40.483a3.752 3.752 0 0 0 3.748-3.747V65.51a3.752 3.752 0 0 0-3.748-3.748h-4.967V46.055l7.372 7.875a1.488 1.488 0 0 0 2.173 0l12.442-13.289a1.488 1.488 0 0 0-1.087-2.505h-5.631v-4.913a1.488 1.488 0 0 0-2.977 0v6.4a1.489 1.489 0 0 0 1.488 1.488h3.688l-9.01 9.623-9.009-9.623h4.139a1.489 1.489 0 0 0 1.488-1.488V19.91h7.216v1.705a1.488 1.488 0 0 0 2.977 0v-3.194a1.488 1.488 0 0 0-1.488-1.488H43.464a1.489 1.489 0 0 0-1.488 1.488v19.714h-2.1V29.7a1.488 1.488 0 0 0-1.488-1.488H24.935V11.768h1.813a1.489 1.489 0 0 0 1.488-1.488V1.489A1.488 1.488 0 0 0 26.748 0h-21.7A1.489 1.489 0 0 0 3.56 1.489v8.791a1.489 1.489 0 0 0 1.488 1.488h1.6a3.4 3.4 0 0 1-.222.591l-5.647 8.66a1.53 1.53 0 0 0-.078.133 6.456 6.456 0 0 0 .566 6.765zm5.27-24.94h18.722v5.814H6.537zM36.9 63.251v1.328a11.554 11.554 0 0 1-2.4 2.33H15.033a11.642 11.642 0 0 1-2.277-2.174V54.162c2.514-3.191 7.066-5.155 12.011-5.155 5.045 0 9.644 2.025 12.131 5.312zM12.761 31.193h2.108a3.917 3.917 0 0 1-2.108 2.107zm2.422-2.977h-2.422v-3.248a1.211 1.211 0 0 1 2.422 0zm29.66 36.523a.772.772 0 0 1 .771.771v6.943a.772.772 0 0 1-.771.771H4.36a.773.773 0 0 1-.773-.771V65.51a.773.773 0 0 1 .773-.771h5.419v2.171H7.218a1.488 1.488 0 1 0 0 2.977h34.766a1.488 1.488 0 0 0 0-2.977h-2.108v-2.171zM36.9 31.193V33.3a3.917 3.917 0 0 1-2.108-2.108zm-11.964 0h6.748a6.888 6.888 0 0 0 5.216 5.216v1.727h-1.007a1.488 1.488 0 0 0-1.086 2.506l2.093 2.235v7.205a19.333 19.333 0 0 0-12.133-4.052 19.433 19.433 0 0 0-12.011 3.957V38.954c0-.041.005-.083.005-.124v-2.421a6.837 6.837 0 0 0 2.439-1.076 4.877 4.877 0 0 0 4.854 4.421 4.881 4.881 0 0 0 4.875-4.875zM3.318 22.575l5.648-8.66a1.514 1.514 0 0 0 .077-.133 6.431 6.431 0 0 0 .642-2.014h12.273v23.11a1.9 1.9 0 0 1-3.8 0v-9.91a4.188 4.188 0 1 0-8.375 0V29.6c0 .035-.005.07-.005.106v4.637l-6.125-8.207a3.459 3.459 0 0 1-.335-3.561zm0 0" class="prefix__cls-1"/>
        <path id="prefix__Path_840" d="M50.726 318.989a1.488 1.488 0 1 0-.568 1.82 1.5 1.5 0 0 0 .568-1.82zm0 0" class="prefix__cls-1" transform="translate(4.305 -292.18)"/>
    </g>
</svg>
