<svg xmlns="http://www.w3.org/2000/svg" width="64.07" height="78.893" viewBox="0 0 64.07 78.893">
    <path id="prefix__Color_Fill_2" d="M21.727 113c1.156.01 1.633 1.153 2.129 1.848l4.1 4.78c.569.708 1.6 1.032 1.607 2.29l-1.125 1.044.321.321 2.209 2.491v.442l-1.245 1.125v.04l5.142 2.932 16.831 8.275a60.483 60.483 0 0 1 7.19 3.816 11.2 11.2 0 0 1 3.214 2.249c.886 1.145 1.011 3.249 1 5.262 1.888 1.425 1.279 5.068 1.727 7.954l.2 4.378.04 1.446a26.787 26.787 0 0 1-2.008 4.74c-.6 1.371-1.139 2.878-2.249 3.736-.353.273-1.026.2-1.406.482-.691.509-.525 1.7-1.567 1.928a2.922 2.922 0 0 1-2.772-1.326 7.567 7.567 0 0 1-1.285-5.9c.368-2 .9-4.27.08-6.146-1.745-4-10.011-7.435-15.144-8.275a6.288 6.288 0 0 0-4.1 1c-.877.519-3.176 2.176-3.414 3.133l.643 4.5c.645 3.526.554 10.32-1 12.533a4.274 4.274 0 0 1-2.812 1.647 3.443 3.443 0 0 1-4.338-2.852c-.266-1.547.2-2.833.2-4.338 0-4.059-.048-7.891-1-11.087a33.949 33.949 0 0 0-2.008-4.218l-3.013-7.592a26.154 26.154 0 0 1-1.888-5.784l-1.808 1.607h-.4l-2.531-2.732-.321.321L8.793 141h-.4L1 132.563v-.4zm.04 3.334L4.254 132.442v.04l4.459 5.182 17.634-16.148-3.214-3.655c-.366-.461-.833-1.261-1.365-1.527zm4.9 8.436l-13.536 12.372.482.482c.05.113.373.592.522.562l2.491-2.249 8.114-7.431 2.932-2.651-.321-.321zm1.165 4.419l-9.681 8.837c.084 2.286 1.13 4.358 1.848 6.186.962 2.451 1.8 4.83 2.812 7.19l1.888 3.615a23.785 23.785 0 0 1 1.085 4.5 49.258 49.258 0 0 1 .522 9.359c0 1.389-.547 3.222.08 4.178a2.907 2.907 0 0 0 2.33-.12c1.138-2.942 1.257-7.813.6-11.488-.218-1.222-.885-4.691-.321-5.624a12.348 12.348 0 0 1 7.03-5.142 12.291 12.291 0 0 1 6.146.442 46.85 46.85 0 0 1 4.78 1.968c3.609 1.587 7.494 3.241 9.078 6.829a10.8 10.8 0 0 1 .6 5.784 13.029 13.029 0 0 0-.522 3.535 7.007 7.007 0 0 0 .8 2.41l.08-.04a3.455 3.455 0 0 1 1.406-1.245l.362-2.491a43.677 43.677 0 0 0 .2-6.548c0-1.324.245-2.682-.2-3.776-.764-1.874-2.794-3.045-4.3-4.218-1.009-.787-1.808-1.842-2.852-2.611-.915-.674-2.678-1.841-1.607-3.254 2.221-.017 2.5 1.5 3.7 2.45l2.37 2.008c2.006 1.512 4.443 3 5.021 5.9l.161 6.266-.161 2.892v-.08a17.986 17.986 0 0 0 1.526-4.378c-.448-3.066.288-8.34-.964-10.484a7.678 7.678 0 0 0-3.053-2.571l-4.05-2.568a13.246 13.246 0 0 1-3.374-2.29 1.656 1.656 0 0 1 .723-1.406c1.5-.033 1.96.924 2.852 1.486l5.9 3.414a5.241 5.241 0 0 0-.442-1.848c-.245-.356-.758-.523-1.125-.763-1.8-1.18-3.809-2.131-5.7-3.254a64.465 64.465 0 0 0-6.909-3.414c-3.326-1.464-6.564-3.227-9.882-4.82l-6.347-3.374zm13.7 30.207c4.526-.059 9.879.637 11.127 3.7.486 1.191.161 4.218.161 5.784v13.256c0 1.715.336 5.218-.321 6.307-1.23 2.037-3.932 2.709-6.708 3.214-4.577.831-11.61-.527-12.814-3.455-.417-1.012-.161-2.959-.161-4.258v-17.237a11.941 11.941 0 0 1 .161-3.615c.817-2 3.461-2.87 5.784-3.374zm-4.419 3.214c-.7.473-1.91.636-2.008 1.687.211.456 1.913 1.858 2.33 1.486l.121-.08c-.4-.4-.92-.613-1.085-1.245a2.374 2.374 0 0 1 .641-1.849zm12.292.442a1.851 1.851 0 0 1-1.044 2.732v.04c.8-.1 2.1-.851 2.169-1.687a2.147 2.147 0 0 0-1.13-1.086zm-6.628.6c-.882.322-2.236-.127-2.892.4l2.611.321a14.107 14.107 0 0 0 3.776-.321c-.479-.374-2.616-.401-3.496-.398zm-4.539 4.941v1.968a20.118 20.118 0 0 0 9.159 0v-1.968c-.627.067-1.966.6-2.611.2-1.279-.8-.366-2.043.844-2.249v-.04a26.725 26.725 0 0 1-4.3.04c-.39-.061-1-.148-1.205.04a1.212 1.212 0 0 1 .844 2.129c-.657.475-2.013-.037-2.732-.118zm4.178-1.808c1.7-.089 2.08 1.737.884 2.209a1.193 1.193 0 0 1-1.567-1.567c.12-.293.436-.462.682-.64zm18.6.241zm-25.949.4c-.034 1.256.142 1.717.884 2.169h.04v-1.727zm15.425 0l-.844.482.04 1.687.08-.08c.368-.134 1.339-1.429.721-2.085zm-6.548 5.985c.032 1.007.116 1.977-.562 2.29l.08.04c.691.825.634 2.613-1.044 2.129a1.219 1.219 0 0 1-.161-2.129c-.576-.537-.584-1.156-.562-2.33a15.074 15.074 0 0 1-6.628-1.607l.04 1.366c.425 1.2 2.544 1.716 3.856 2.049.853.216 1.914.115 2.33.763a1.762 1.762 0 0 1 .08.844c-.07 1.42-2.156.721-3.133.6v2.049c1.207.2 2.506.394 3.9.6 1.927.288 3.772-.334 5.262-.6v-2.049c-.978.108-3.059.823-3.133-.6a1.752 1.752 0 0 1 .08-.844c.409-.629 1.327-.517 2.169-.723 1.4-.342 3.535-.844 4.017-2.089l.04-1.366a16.2 16.2 0 0 1-6.634 1.611zm-8.877 2.852c-.035 1.277.123 1.831.924 2.249l-.04-1.848zm15.465 0l-.884.442v1.808a1.793 1.793 0 0 0 .881-2.246zm-8.84 8.237l-.04-2.209a15.671 15.671 0 0 1-6.588-1.567 3.6 3.6 0 0 0 .161 1.607c.824 1.347 4.323 2.045 6.467 2.169zm2.249 0a11.633 11.633 0 0 0 5.744-1.567 1.785 1.785 0 0 0 .844-2.209 14.416 14.416 0 0 1-4.419 1.406l-2.169.2zm-8.877.683c-.035 1.485-.019 2.313.924 2.812v-2.37zm15.425 0l-.844.482V188c.778-.394.925-.884.924-2.089 0-.257.042-.593-.08-.726zm-12.252 1.165v2.611c1.231.2 2.558.39 3.977.6 1.9.283 3.7-.357 5.182-.6v-2.611c-1.07.115-2.243.267-3.414.442-2.072.31-4.074-.261-5.745-.441z" transform="translate(-1 -113)" style="fill:#606060;fill-rule:evenodd"/>
</svg>
